<svg xmlns="http://www.w3.org/2000/svg" viewBox="0 0 420 560" role="img" aria-labelledby="title desc">
  <title id="title">Logomarca Especialidades em Saúde e Bem-Estar</title>
  <desc id="desc">Símbolo floral verde utilizado na identidade visual.</desc>
  <g fill="none" stroke="#789c78" stroke-width="16" stroke-linecap="round" stroke-linejoin="round">
    <path d="M210 390 C152 294 150 172 210 60 C276 160 292 284 210 390 Z" />
    <path d="M210 390 C278 300 306 218 374 172 C372 280 306 358 210 390 Z" />
    <path d="M210 390 C142 330 92 254 94 172 C170 206 204 286 210 390 Z" />
    <path d="M204 396 C274 366 346 374 386 410 C310 442 250 436 204 396 Z" />
    <path d="M204 396 C154 440 102 462 48 474" />
  </g>
  <path d="M270 280 C306 230 336 200 364 184 C358 272 310 338 226 382 C246 344 260 310 270 280 Z" fill="#789c78" opacity="0.95" />
  <path d="M136 250 C126 224 114 198 96 176 C152 202 180 240 194 318 C164 292 148 270 136 250 Z" fill="#789c78" opacity="0.95" />
</svg>
